<mxfile host="app.diagrams.net" modified="2023-12-31T04:32:00.774Z" agent="Mozilla/5.0 (Macintosh; Intel Mac OS X 10_15_7) AppleWebKit/537.36 (KHTML, like Gecko) Chrome/120.0.0.0 Safari/537.36" etag="72d9lkQ11SU-WN6KV6Lf" version="21.1.8" type="github">
  <diagram name="Page-1" id="2YBvvXClWsGukQMizWep">
    <mxGraphModel dx="1026" dy="650" grid="1" gridSize="10" guides="1" tooltips="1" connect="1" arrows="1" fold="1" page="1" pageScale="1" pageWidth="850" pageHeight="1100" math="0" shadow="0">
      <root>
        <mxCell id="0" />
        <mxCell id="1" parent="0" />
        <mxCell id="aM9ryv3xv72pqoxQDRHE-1" value="Observer" style="shape=umlLifeline;perimeter=lifelinePerimeter;whiteSpace=wrap;html=1;container=0;dropTarget=0;collapsible=0;recursiveResize=0;outlineConnect=0;portConstraint=eastwest;newEdgeStyle={&quot;edgeStyle&quot;:&quot;elbowEdgeStyle&quot;,&quot;elbow&quot;:&quot;vertical&quot;,&quot;curved&quot;:0,&quot;rounded&quot;:0};" parent="1" vertex="1">
          <mxGeometry x="125" y="70" width="100" height="300" as="geometry" />
        </mxCell>
        <mxCell id="aM9ryv3xv72pqoxQDRHE-2" value="" style="html=1;points=[];perimeter=orthogonalPerimeter;outlineConnect=0;targetShapes=umlLifeline;portConstraint=eastwest;newEdgeStyle={&quot;edgeStyle&quot;:&quot;elbowEdgeStyle&quot;,&quot;elbow&quot;:&quot;vertical&quot;,&quot;curved&quot;:0,&quot;rounded&quot;:0};" parent="aM9ryv3xv72pqoxQDRHE-1" vertex="1">
          <mxGeometry x="45" y="70" width="10" height="170" as="geometry" />
        </mxCell>
        <mxCell id="aM9ryv3xv72pqoxQDRHE-3" value="./observer" style="html=1;verticalAlign=bottom;startArrow=oval;endArrow=block;startSize=8;edgeStyle=elbowEdgeStyle;elbow=vertical;curved=0;rounded=0;" parent="aM9ryv3xv72pqoxQDRHE-1" target="aM9ryv3xv72pqoxQDRHE-2" edge="1">
          <mxGeometry relative="1" as="geometry">
            <mxPoint x="-65" y="70" as="sourcePoint" />
          </mxGeometry>
        </mxCell>
        <mxCell id="aM9ryv3xv72pqoxQDRHE-4" value="" style="html=1;points=[];perimeter=orthogonalPerimeter;outlineConnect=0;targetShapes=umlLifeline;portConstraint=eastwest;newEdgeStyle={&quot;edgeStyle&quot;:&quot;elbowEdgeStyle&quot;,&quot;elbow&quot;:&quot;vertical&quot;,&quot;curved&quot;:0,&quot;rounded&quot;:0};" parent="aM9ryv3xv72pqoxQDRHE-1" vertex="1">
          <mxGeometry x="50" y="80" width="10" height="50" as="geometry" />
        </mxCell>
        <mxCell id="GlnjvFnynsPtNdrdiKN6-4" value="" style="html=1;points=[];perimeter=orthogonalPerimeter;outlineConnect=0;targetShapes=umlLifeline;portConstraint=eastwest;newEdgeStyle={&quot;edgeStyle&quot;:&quot;elbowEdgeStyle&quot;,&quot;elbow&quot;:&quot;vertical&quot;,&quot;curved&quot;:0,&quot;rounded&quot;:0};" vertex="1" parent="aM9ryv3xv72pqoxQDRHE-1">
          <mxGeometry x="50" y="180" width="10" height="60" as="geometry" />
        </mxCell>
        <mxCell id="GlnjvFnynsPtNdrdiKN6-5" value="wait" style="text;html=1;align=center;verticalAlign=middle;resizable=0;points=[];autosize=1;strokeColor=none;fillColor=none;" vertex="1" parent="aM9ryv3xv72pqoxQDRHE-1">
          <mxGeometry x="55" y="190" width="40" height="30" as="geometry" />
        </mxCell>
        <mxCell id="GlnjvFnynsPtNdrdiKN6-1" value="init" style="text;html=1;align=center;verticalAlign=middle;resizable=0;points=[];autosize=1;strokeColor=none;fillColor=none;" vertex="1" parent="1">
          <mxGeometry x="176" y="159" width="40" height="30" as="geometry" />
        </mxCell>
        <mxCell id="GlnjvFnynsPtNdrdiKN6-2" value="" style="html=1;points=[];perimeter=orthogonalPerimeter;outlineConnect=0;targetShapes=umlLifeline;portConstraint=eastwest;newEdgeStyle={&quot;edgeStyle&quot;:&quot;elbowEdgeStyle&quot;,&quot;elbow&quot;:&quot;vertical&quot;,&quot;curved&quot;:0,&quot;rounded&quot;:0};" vertex="1" parent="1">
          <mxGeometry x="175" y="200" width="10" height="50" as="geometry" />
        </mxCell>
        <mxCell id="GlnjvFnynsPtNdrdiKN6-3" value="start" style="text;html=1;align=center;verticalAlign=middle;resizable=0;points=[];autosize=1;strokeColor=none;fillColor=none;" vertex="1" parent="1">
          <mxGeometry x="175" y="210" width="50" height="30" as="geometry" />
        </mxCell>
        <mxCell id="GlnjvFnynsPtNdrdiKN6-6" value="ObService::bootstrap" style="shape=umlLifeline;perimeter=lifelinePerimeter;whiteSpace=wrap;html=1;container=0;dropTarget=0;collapsible=0;recursiveResize=0;outlineConnect=0;portConstraint=eastwest;newEdgeStyle={&quot;edgeStyle&quot;:&quot;elbowEdgeStyle&quot;,&quot;elbow&quot;:&quot;vertical&quot;,&quot;curved&quot;:0,&quot;rounded&quot;:0};" vertex="1" parent="1">
          <mxGeometry x="254" y="70" width="120" height="500" as="geometry" />
        </mxCell>
        <mxCell id="GlnjvFnynsPtNdrdiKN6-7" value="" style="html=1;points=[];perimeter=orthogonalPerimeter;outlineConnect=0;targetShapes=umlLifeline;portConstraint=eastwest;newEdgeStyle={&quot;edgeStyle&quot;:&quot;elbowEdgeStyle&quot;,&quot;elbow&quot;:&quot;vertical&quot;,&quot;curved&quot;:0,&quot;rounded&quot;:0};" vertex="1" parent="GlnjvFnynsPtNdrdiKN6-6">
          <mxGeometry x="55" y="250" width="10" height="130" as="geometry" />
        </mxCell>
        <mxCell id="GlnjvFnynsPtNdrdiKN6-27" value="" style="html=1;points=[];perimeter=orthogonalPerimeter;outlineConnect=0;targetShapes=umlLifeline;portConstraint=eastwest;newEdgeStyle={&quot;edgeStyle&quot;:&quot;elbowEdgeStyle&quot;,&quot;elbow&quot;:&quot;vertical&quot;,&quot;curved&quot;:0,&quot;rounded&quot;:0};" vertex="1" parent="GlnjvFnynsPtNdrdiKN6-6">
          <mxGeometry x="60" y="255" width="10" height="60" as="geometry" />
        </mxCell>
        <mxCell id="GlnjvFnynsPtNdrdiKN6-30" value="" style="html=1;points=[];perimeter=orthogonalPerimeter;outlineConnect=0;targetShapes=umlLifeline;portConstraint=eastwest;newEdgeStyle={&quot;edgeStyle&quot;:&quot;elbowEdgeStyle&quot;,&quot;elbow&quot;:&quot;vertical&quot;,&quot;curved&quot;:0,&quot;rounded&quot;:0};" vertex="1" parent="GlnjvFnynsPtNdrdiKN6-6">
          <mxGeometry x="60" y="316" width="10" height="60" as="geometry" />
        </mxCell>
        <mxCell id="GlnjvFnynsPtNdrdiKN6-18" value="&lt;div data-docx-has-block-data=&quot;false&quot; data-page-id=&quot;CHfbdJ158oKmKKxTDB1cQosknrW&quot;&gt;&lt;div class=&quot;old-record-id-IgtFdN6Iko3XxbxAwm1cqpuun3d&quot;&gt;ObDDLService::create_tenant&lt;/div&gt;&lt;/div&gt;" style="shape=umlLifeline;perimeter=lifelinePerimeter;whiteSpace=wrap;html=1;container=0;dropTarget=0;collapsible=0;recursiveResize=0;outlineConnect=0;portConstraint=eastwest;newEdgeStyle={&quot;edgeStyle&quot;:&quot;elbowEdgeStyle&quot;,&quot;elbow&quot;:&quot;vertical&quot;,&quot;curved&quot;:0,&quot;rounded&quot;:0};" vertex="1" parent="1">
          <mxGeometry x="400" y="70" width="165" height="630" as="geometry" />
        </mxCell>
        <mxCell id="GlnjvFnynsPtNdrdiKN6-19" value="" style="html=1;points=[];perimeter=orthogonalPerimeter;outlineConnect=0;targetShapes=umlLifeline;portConstraint=eastwest;newEdgeStyle={&quot;edgeStyle&quot;:&quot;elbowEdgeStyle&quot;,&quot;elbow&quot;:&quot;vertical&quot;,&quot;curved&quot;:0,&quot;rounded&quot;:0};" vertex="1" parent="GlnjvFnynsPtNdrdiKN6-18">
          <mxGeometry x="77.5" y="407" width="10" height="193" as="geometry" />
        </mxCell>
        <mxCell id="GlnjvFnynsPtNdrdiKN6-35" value="" style="html=1;points=[];perimeter=orthogonalPerimeter;outlineConnect=0;targetShapes=umlLifeline;portConstraint=eastwest;newEdgeStyle={&quot;edgeStyle&quot;:&quot;elbowEdgeStyle&quot;,&quot;elbow&quot;:&quot;vertical&quot;,&quot;curved&quot;:0,&quot;rounded&quot;:0};" vertex="1" parent="GlnjvFnynsPtNdrdiKN6-18">
          <mxGeometry x="82.5" y="411" width="10" height="60" as="geometry" />
        </mxCell>
        <mxCell id="GlnjvFnynsPtNdrdiKN6-37" value="" style="html=1;points=[];perimeter=orthogonalPerimeter;outlineConnect=0;targetShapes=umlLifeline;portConstraint=eastwest;newEdgeStyle={&quot;edgeStyle&quot;:&quot;elbowEdgeStyle&quot;,&quot;elbow&quot;:&quot;vertical&quot;,&quot;curved&quot;:0,&quot;rounded&quot;:0};" vertex="1" parent="GlnjvFnynsPtNdrdiKN6-18">
          <mxGeometry x="82.5" y="471" width="10" height="60" as="geometry" />
        </mxCell>
        <mxCell id="GlnjvFnynsPtNdrdiKN6-43" value="" style="html=1;points=[];perimeter=orthogonalPerimeter;outlineConnect=0;targetShapes=umlLifeline;portConstraint=eastwest;newEdgeStyle={&quot;edgeStyle&quot;:&quot;elbowEdgeStyle&quot;,&quot;elbow&quot;:&quot;vertical&quot;,&quot;curved&quot;:0,&quot;rounded&quot;:0};" vertex="1" parent="GlnjvFnynsPtNdrdiKN6-18">
          <mxGeometry x="82.5" y="531" width="10" height="60" as="geometry" />
        </mxCell>
        <mxCell id="GlnjvFnynsPtNdrdiKN6-20" value="mysql client" style="shape=umlActor;verticalLabelPosition=bottom;verticalAlign=top;html=1;outlineConnect=0;" vertex="1" parent="1">
          <mxGeometry x="30" y="290" width="30" height="60" as="geometry" />
        </mxCell>
        <mxCell id="GlnjvFnynsPtNdrdiKN6-23" value="" style="endArrow=classic;html=1;rounded=0;" edge="1" parent="1">
          <mxGeometry width="50" height="50" relative="1" as="geometry">
            <mxPoint x="78.5" y="320" as="sourcePoint" />
            <mxPoint x="313.5" y="320" as="targetPoint" />
          </mxGeometry>
        </mxCell>
        <mxCell id="GlnjvFnynsPtNdrdiKN6-26" value="bootstrap sql" style="text;whiteSpace=wrap;html=1;" vertex="1" parent="1">
          <mxGeometry x="200" y="298" width="130" height="20" as="geometry" />
        </mxCell>
        <mxCell id="GlnjvFnynsPtNdrdiKN6-28" value="prepare_bootstrap:&lt;br&gt;创建日志流、等待选主" style="text;html=1;align=center;verticalAlign=middle;resizable=0;points=[];autosize=1;strokeColor=none;fillColor=none;" vertex="1" parent="1">
          <mxGeometry x="320" y="323" width="140" height="40" as="geometry" />
        </mxCell>
        <mxCell id="GlnjvFnynsPtNdrdiKN6-29" value="execute_bootstrap:&lt;br&gt;创建系统租户、表" style="text;html=1;align=center;verticalAlign=middle;resizable=0;points=[];autosize=1;strokeColor=none;fillColor=none;" vertex="1" parent="1">
          <mxGeometry x="320" y="390" width="130" height="40" as="geometry" />
        </mxCell>
        <mxCell id="GlnjvFnynsPtNdrdiKN6-31" value="" style="endArrow=classic;html=1;rounded=0;" edge="1" parent="1" source="GlnjvFnynsPtNdrdiKN6-6">
          <mxGeometry width="50" height="50" relative="1" as="geometry">
            <mxPoint x="330" y="320" as="sourcePoint" />
            <mxPoint x="240" y="450" as="targetPoint" />
          </mxGeometry>
        </mxCell>
        <mxCell id="GlnjvFnynsPtNdrdiKN6-32" value="return" style="text;html=1;align=center;verticalAlign=middle;resizable=0;points=[];autosize=1;strokeColor=none;fillColor=none;" vertex="1" parent="1">
          <mxGeometry x="254" y="425" width="50" height="30" as="geometry" />
        </mxCell>
        <mxCell id="GlnjvFnynsPtNdrdiKN6-33" value="" style="endArrow=classic;html=1;rounded=0;" edge="1" parent="1">
          <mxGeometry width="50" height="50" relative="1" as="geometry">
            <mxPoint x="80" y="477" as="sourcePoint" />
            <mxPoint x="482" y="477" as="targetPoint" />
          </mxGeometry>
        </mxCell>
        <mxCell id="GlnjvFnynsPtNdrdiKN6-34" value="create tenant sql" style="text;html=1;align=center;verticalAlign=middle;resizable=0;points=[];autosize=1;strokeColor=none;fillColor=none;" vertex="1" parent="1">
          <mxGeometry x="330" y="454" width="110" height="30" as="geometry" />
        </mxCell>
        <mxCell id="GlnjvFnynsPtNdrdiKN6-36" value="create meta tenant:&lt;br&gt;创建meta租户、表" style="text;html=1;align=center;verticalAlign=middle;resizable=0;points=[];autosize=1;strokeColor=none;fillColor=none;" vertex="1" parent="1">
          <mxGeometry x="485" y="485" width="130" height="40" as="geometry" />
        </mxCell>
        <mxCell id="GlnjvFnynsPtNdrdiKN6-38" value="create user tenant&lt;br&gt;创建user租户、表" style="text;html=1;align=center;verticalAlign=middle;resizable=0;points=[];autosize=1;strokeColor=none;fillColor=none;" vertex="1" parent="1">
          <mxGeometry x="490" y="545" width="120" height="40" as="geometry" />
        </mxCell>
        <mxCell id="GlnjvFnynsPtNdrdiKN6-39" value="" style="endArrow=classic;html=1;rounded=0;" edge="1" parent="1">
          <mxGeometry width="50" height="50" relative="1" as="geometry">
            <mxPoint x="485" y="670" as="sourcePoint" />
            <mxPoint x="413" y="670" as="targetPoint" />
          </mxGeometry>
        </mxCell>
        <mxCell id="GlnjvFnynsPtNdrdiKN6-40" value="return" style="text;html=1;align=center;verticalAlign=middle;resizable=0;points=[];autosize=1;strokeColor=none;fillColor=none;" vertex="1" parent="1">
          <mxGeometry x="425" y="640" width="50" height="30" as="geometry" />
        </mxCell>
        <mxCell id="GlnjvFnynsPtNdrdiKN6-41" value="mysql client" style="shape=umlActor;verticalLabelPosition=bottom;verticalAlign=top;html=1;outlineConnect=0;" vertex="1" parent="1">
          <mxGeometry x="30" y="450" width="30" height="60" as="geometry" />
        </mxCell>
        <mxCell id="GlnjvFnynsPtNdrdiKN6-44" value="等待租户创建&lt;br&gt;状态机流转完毕" style="text;html=1;align=center;verticalAlign=middle;resizable=0;points=[];autosize=1;strokeColor=none;fillColor=none;" vertex="1" parent="1">
          <mxGeometry x="490" y="610" width="110" height="40" as="geometry" />
        </mxCell>
      </root>
    </mxGraphModel>
  </diagram>
</mxfile>
